<svg id="Baños" xmlns="http://www.w3.org/2000/svg" xmlns:xlink="http://www.w3.org/1999/xlink" width="34" height="34" viewBox="0 0 34 34">
  <defs>
    <clipPath id="clip-path">
      <rect id="Rectángulo_403" data-name="Rectángulo 403" width="34" height="34" rx="3" transform="translate(1023 470)" fill="#414141"/>
    </clipPath>
  </defs>
  <g id="Enmascarar_grupo_66" data-name="Enmascarar grupo 66" transform="translate(-1023 -470)" clip-path="url(#clip-path)">
    <path id="FontAwsome_bath_" data-name="FontAwsome (bath)" d="M1.045,12.536a3.116,3.116,0,0,0,1.045,2.322v1.336a.523.523,0,0,0,.523.523H3.658a.523.523,0,0,0,.523-.523v-.523h8.362v.523a.523.523,0,0,0,.523.523h1.045a.523.523,0,0,0,.523-.523V14.858a3.116,3.116,0,0,0,1.045-2.322V10.968H1.045ZM16.2,8.355H2.613v-6.1A.694.694,0,0,1,3.8,1.765l.629.629A2.5,2.5,0,0,0,4.709,5L4.7,5a.523.523,0,0,0,0,.738l.369.369a.523.523,0,0,0,.739,0L9.254,2.669a.523.523,0,0,0,0-.739L8.885,1.56a.523.523,0,0,0-.739,0l-.006.006a2.5,2.5,0,0,0-2.6-.282L4.907.655a2.262,2.262,0,0,0-3.862,1.6v6.1H.523A.523.523,0,0,0,0,8.877V9.4a.523.523,0,0,0,.523.523H16.2a.523.523,0,0,0,.523-.523V8.877A.523.523,0,0,0,16.2,8.355Z" transform="translate(1031.638 478.646)" fill="#9d9d9d"/>
  </g>
</svg>
