<svg id="icono_m치s_informaci칩n" xmlns="http://www.w3.org/2000/svg" xmlns:xlink="http://www.w3.org/1999/xlink" width="34" height="34" viewBox="0 0 34 34">
  <defs>
    <clipPath id="clip-path">
      <rect id="Rect치ngulo_412" data-name="Rect치ngulo 412" width="34" height="34" rx="3" transform="translate(1023 470)" fill="#414141"/>
    </clipPath>
    <filter id="Trazado_2601" x="-3.042" y="-0.041" width="40.085" height="40.082" filterUnits="userSpaceOnUse">
      <feOffset dy="3" input="SourceAlpha"/>
      <feGaussianBlur stdDeviation="3" result="blur"/>
      <feFlood flood-color="#fff" flood-opacity="0.255"/>
      <feComposite operator="in" in2="blur"/>
      <feComposite in="SourceGraphic"/>
    </filter>
  </defs>
  <g id="Enmascarar_grupo_72" data-name="Enmascarar grupo 72" transform="translate(-1023 -470)" clip-path="url(#clip-path)">
    <g id="Grupo_49944" data-name="Grupo 49944" transform="translate(392.326 222.901)">
      <path id="Trazado_2601-2" data-name="Trazado 2601" d="M0,13.118A13.133,13.133,0,1,0,13.16,0,13.133,13.133,0,0,0,0,13.118" transform="translate(634.541 250.969)" fill="#e36900"/>
      <g id="Grupo_49822" data-name="Grupo 49822" transform="translate(637.161 253.588)">
        <g transform="matrix(1, 0, 0, 1, -6.49, -6.49)" filter="url(#Trazado_2601)">
          <path id="Trazado_2601-3" data-name="Trazado 2601" d="M0,11.03A11.043,11.043,0,1,0,11.065,0,11.042,11.042,0,0,0,0,11.03" transform="translate(5.96 5.96)" fill="#fff"/>
        </g>
        <g id="Grupo_49822-2" data-name="Grupo 49822" transform="translate(9.2 4.668)">
          <path id="Trazado_2602" data-name="Trazado 2602" d="M197.592,178.08c0,1.037,0,2.075,0,3.112a.965.965,0,0,1-.752.954.949.949,0,0,1-1.068-.485,1.151,1.151,0,0,1-.12-.487q-.012-3.112,0-6.224a.972.972,0,1,1,1.943-.006c.006,1.045,0,2.091,0,3.136" transform="translate(-195.306 -170.142)" fill="#e36900"/>
          <path id="Trazado_2603" data-name="Trazado 2603" d="M191.318,97.067a1.313,1.313,0,1,1-2.627-.015,1.313,1.313,0,0,1,2.627.015" transform="translate(-188.692 -95.751)" fill="#e36900"/>
        </g>
      </g>
    </g>
  </g>
</svg>
