<svg id="limpiar_filtro" xmlns="http://www.w3.org/2000/svg" xmlns:xlink="http://www.w3.org/1999/xlink" width="34" height="34" viewBox="0 0 34 34">
  <defs>
    <clipPath id="clip-path">
      <rect id="Rectángulo_412" data-name="Rectángulo 412" width="34" height="34" rx="3" transform="translate(1023 470)" fill="#414141"/>
    </clipPath>
  </defs>
  <g id="Enmascarar_grupo_72" data-name="Enmascarar grupo 72" transform="translate(-1023 -470)" clip-path="url(#clip-path)">
    <path id="Trazado_2440" data-name="Trazado 2440" d="M19.8,19.347H.617A.967.967,0,0,1,0,18.771V18.4a.887.887,0,0,1,.966-.588c.746.024,1.493.007,2.24.006.057,0,.113-.008.17-.012l.036-.058a1.363,1.363,0,0,1-.183-.131q-1.2-1.2-2.4-2.4A2.777,2.777,0,0,1,.1,13.978c-.036-.13-.066-.263-.1-.394v-.7a.724.724,0,0,0,.038-.113,2.716,2.716,0,0,1,.776-1.51Q6.037,6.039,11.259.816A2.686,2.686,0,0,1,12.628.069c.1-.021.2-.046.3-.069h.659a1.225,1.225,0,0,0,.137.038,2.679,2.679,0,0,1,1.518.756l5,5a2.781,2.781,0,0,1,.731,1.243c.038.137.07.276.1.414v.659a3.834,3.834,0,0,1-1.332,2.178q-3.683,3.65-7.337,7.328c-.055.055-.108.113-.2.2H19.46c.075,0,.151,0,.226,0a.749.749,0,0,1,.7.687.8.8,0,0,1-.584.838M8.02,6.225c-.017.014-.039.03-.058.049Q4.943,9.293,1.926,12.313a1.25,1.25,0,0,0,.011,1.85q1.757,1.763,3.518,3.523a.439.439,0,0,0,.344.136q2.016-.006,4.032,0a.458.458,0,0,0,.358-.15q2.25-2.259,4.507-4.512c.047-.047.089-.1.124-.137l-6.8-6.8M15.949,11.9c.039-.037.08-.074.118-.112q1.506-1.506,3.012-3.012a1.277,1.277,0,0,0,0-1.985L14.248,1.962a1.273,1.273,0,0,0-1.97,0q-1.5,1.5-3,3a.683.683,0,0,1-.179.1L15.949,11.9" transform="translate(1029.514 477)" fill="#d4702a"/>
  </g>
</svg>
