<svg id="parqueaderos" xmlns="http://www.w3.org/2000/svg" xmlns:xlink="http://www.w3.org/1999/xlink" width="34" height="34" viewBox="0 0 34 34">
  <defs>
    <clipPath id="clip-path">
      <rect id="Rectángulo_404" data-name="Rectángulo 404" width="34" height="34" rx="3" transform="translate(1023 470)" fill="#414141"/>
    </clipPath>
  </defs>
  <g id="Enmascarar_grupo_67" data-name="Enmascarar grupo 67" transform="translate(-1023 -470)" clip-path="url(#clip-path)">
    <path id="FontAwsome_car_" data-name="FontAwsome (car)" d="M18.921,68.238H16.656l-.63-1.574A4.216,4.216,0,0,0,12.092,64H7.287a4.217,4.217,0,0,0-3.935,2.664l-.63,1.574H.458a.454.454,0,0,0-.44.564l.227.908a.454.454,0,0,0,.44.344h.759A2.4,2.4,0,0,0,.609,71.87v1.816a2.4,2.4,0,0,0,.605,1.586v2.046a1.211,1.211,0,0,0,1.211,1.211H3.636a1.211,1.211,0,0,0,1.211-1.211V76.107h9.686v1.211a1.211,1.211,0,0,0,1.211,1.211h1.211a1.211,1.211,0,0,0,1.211-1.211V75.272a2.4,2.4,0,0,0,.605-1.586V71.87a2.406,2.406,0,0,0-.835-1.816h.759a.454.454,0,0,0,.44-.344l.227-.908a.454.454,0,0,0-.441-.564ZM5.6,67.563a1.816,1.816,0,0,1,1.686-1.141h4.805a1.816,1.816,0,0,1,1.686,1.141l.754,1.885H4.846ZM3.636,73.678a1.207,1.207,0,1,1,0-2.414,2.329,2.329,0,0,1,1.816,1.81C5.452,73.8,4.362,73.678,3.636,73.678Zm12.107,0c-.726,0-1.816.121-1.816-.6a2.329,2.329,0,0,1,1.816-1.81,1.207,1.207,0,1,1,0,2.414Z" transform="translate(1030.311 415.736)" fill="#9d9d9d"/>
  </g>
</svg>
