<svg id="Ubicación" xmlns="http://www.w3.org/2000/svg" xmlns:xlink="http://www.w3.org/1999/xlink" width="21" height="21" viewBox="0 0 21 21">
  <defs>
    <clipPath id="clip-path">
      <rect id="Rectángulo_404" data-name="Rectángulo 404" width="21" height="21" rx="3" fill="#414141"/>
    </clipPath>
  </defs>
  <g id="Enmascarar_grupo_67" data-name="Enmascarar grupo 67" clip-path="url(#clip-path)">
    <path id="Trazado_2617" data-name="Trazado 2617" d="M3.555,0h.517c.088.013.175.028.263.04A3.634,3.634,0,0,1,5.951.66,3.777,3.777,0,0,1,7.586,3.267c.015.1.029.2.044.293v.517c-.017.1-.033.207-.05.311a6.526,6.526,0,0,1-.794,2.1,17.479,17.479,0,0,1-2.7,3.552.33.33,0,0,1-.552,0A18.327,18.327,0,0,1,1.11,6.947,8.633,8.633,0,0,1,.2,5.042,3.835,3.835,0,0,1,.1,2.955,3.771,3.771,0,0,1,1.139,1.1,3.741,3.741,0,0,1,3.233.049L3.555,0M5.721,3.816A1.908,1.908,0,1,0,3.813,5.727,1.914,1.914,0,0,0,5.721,3.816" transform="translate(6.341 4.31)" fill="#9d9d9d"/>
  </g>
</svg>
